<svg id="Layer_1" data-name="Layer 1" xmlns="http://www.w3.org/2000/svg" viewBox="0 0 595.28 841.89"><defs><style>.cls-1,.cls-2{stroke:#000;}.cls-1,.cls-2,.cls-3,.cls-4,.cls-6{stroke-miterlimit:10;}.cls-2,.cls-5{fill:#fff;}.cls-3,.cls-4,.cls-6{fill:none;}.cls-10,.cls-3,.cls-4,.cls-6,.cls-9{stroke:#fff;}.cls-3{stroke-width:0.5px;}.cls-4{stroke-width:0.75px;}.cls-10,.cls-7{fill:#009444;}.cls-8{fill:#27aae1;}.cls-9{fill:#231f20;}.cls-10,.cls-9{stroke-linecap:round;stroke-linejoin:round;stroke-width:20px;}</style></defs><path class="cls-1" d="M202.64,506a176.69,176.69,0,0,0-4.13-21.41c-4.59-18.56-12.24-38.84-22.28-58.76l0,0q-4.12-8.25-8.8-16.36c-2.09-3.69-4.28-7.34-6.55-10.9q-3.57-5.77-7.39-11.31c-1.79-2.64-3.64-5.21-5.54-7.81-1.37-1.85-2.71-3.65-4.08-5.38-3.2-4.12-6.4-8-9.55-11.58a172.87,172.87,0,0,0-20-19.6c-1.92-1.57-3.84-3.05-5.72-4.37-7.45-5.41-14.53-9-20.89-10.79C73.12,323.59,62,329,57.24,345.07a37.9,37.9,0,0,0-.93,3.81c-1.81,8.5-1.92,18.76-.48,30.27,1.94,15.67,6.7,33.51,13.87,52A321.65,321.65,0,0,0,92.27,478a294.77,294.77,0,0,0,18.24,27.86c3.4,4.61,6.82,8.94,10.2,13,18.66,22.2,37,35.75,51.53,39.12,8.36,2,15.51.88,20.84-3.85v0a24,24,0,0,0,6.31-8.7,45.79,45.79,0,0,0,1.86-5.13,64.83,64.83,0,0,0,2.36-16A115.64,115.64,0,0,0,202.64,506Zm-50-31.59c-.2.6-.4,1.16-.62,1.68A7.5,7.5,0,0,1,150,479v0c-1.74,1.56-4.08,2-6.82,1.32-4.74-1-10.7-5.37-16.78-12.58-1.09-1.33-2.21-2.73-3.31-4.21a96.75,96.75,0,0,1-5.94-9.1,103.44,103.44,0,0,1-7.32-15.32,72.55,72.55,0,0,1-4.48-17,31.14,31.14,0,0,1,.2-9.94,11.42,11.42,0,0,1,.31-1.25c1.56-5.29,5.2-7.13,10-5.85a21.41,21.41,0,0,1,6.81,3.45,59,59,0,0,1,12.82,13.27c.62.84,1.21,1.68,1.81,2.52a112.29,112.29,0,0,1,7.39,12.59h0a94.18,94.18,0,0,1,7.23,19.2,60.86,60.86,0,0,1,1.33,7,40.44,40.44,0,0,1,.28,6A22,22,0,0,1,152.67,474.39Z"/><path class="cls-2" d="M105.83,410.92c-.12.4-.22.82-.31,1.25a30.69,30.69,0,0,0-.18,9.95,72.76,72.76,0,0,0,4.47,17,104.2,104.2,0,0,0,7.32,15.31,98.46,98.46,0,0,0,5.94,9.08c1.1,1.5,2.22,2.9,3.31,4.2,6.07,7.22,12,11.58,16.79,12.62,2.73.64,5.06.22,6.81-1.35v0a8.11,8.11,0,0,0,2.07-2.89,15.59,15.59,0,0,0,.61-1.68,22,22,0,0,0,.79-5.28,37.94,37.94,0,0,0-.3-6,60.71,60.71,0,0,0-1.33-7,93.12,93.12,0,0,0-7.21-19.21h0a105.66,105.66,0,0,0-7.39-12.56c-.58-.87-1.18-1.7-1.8-2.54a59.73,59.73,0,0,0-12.83-13.28,21.54,21.54,0,0,0-6.8-3.44C111,403.8,107.39,405.63,105.83,410.92Z"/><path class="cls-3" d="M130.69,410.13A54.8,54.8,0,0,0,119,400.2c-5.7-3.3-10.74-3.73-14-.88-5,4.4-5.72,16.34-1.86,30.58a121.23,121.23,0,0,0,21.36,41.72c9.5,11.7,19.76,17.95,26.2,15.84,7.33-2.42,9.19-15.84,4.52-32.66a114.36,114.36,0,0,0-9.52-23.14,120.54,120.54,0,0,0-8.25-13.23c-1.47-2-3-4-4.49-5.74l-.29-.33C132,411.59,131.36,410.85,130.69,410.13Z"/><path class="cls-4" d="M203.61,524.22a64.83,64.83,0,0,1-2.36,16,45.79,45.79,0,0,1-1.86,5.13,24,24,0,0,1-6.31,8.7v0c-5.33,4.73-12.48,5.9-20.84,3.85-14.58-3.37-32.87-16.92-51.53-39.12-3.38-4-6.8-8.34-10.2-13A294.77,294.77,0,0,1,92.27,478,321.65,321.65,0,0,1,69.7,431.1c-7.17-18.44-11.93-36.28-13.87-52-1.44-11.51-1.33-21.77.48-30.27a37.9,37.9,0,0,1,.93-3.81C62,329,73.12,323.59,87.68,327.67c6.36,1.77,13.44,5.38,20.89,10.79,1.88,1.32,3.8,2.8,5.72,4.37a172.87,172.87,0,0,1,20,19.6c3.15,3.57,6.35,7.46,9.55,11.58,1.37,1.73,2.71,3.53,4.08,5.38,1.9,2.6,3.75,5.17,5.54,7.81q3.81,5.54,7.39,11.31c2.27,3.56,4.46,7.21,6.55,10.9q4.67,8.11,8.8,16.36l0,0c10,19.92,17.69,40.2,22.28,58.76A176.69,176.69,0,0,1,202.64,506,115.64,115.64,0,0,1,203.61,524.22Z"/><path class="cls-5" d="M136.82,371.48q5.38,6.31,10.3,13l4.81,6.78c1.57,2.27,3.11,4.58,4.62,6.9A313.64,313.64,0,0,1,173.08,427l0,0,0,0v0a294.51,294.51,0,0,1,13.21,30.48q2.86,7.78,5.19,15.77c.79,2.66,1.49,5.34,2.16,8l1.86,8.1-1.92-8.08c-.69-2.68-1.41-5.35-2.21-8q-2.36-8-5.24-15.76a292.86,292.86,0,0,0-13.27-30.41l0-.05v0a310.92,310.92,0,0,0-16.45-28.83c-1.5-2.32-3-4.63-4.6-6.91L147,384.58Q142.17,377.85,136.82,371.48Z"/><path class="cls-5" d="M147.58,538.83a82.49,82.49,0,0,0,9.48,6.08,51.94,51.94,0,0,0,10.33,4.4,29.84,29.84,0,0,0,11.09,1.31,17.47,17.47,0,0,0,10.13-4.32l0,.06,0-.05v0l0,0A22.81,22.81,0,0,0,195,537a46.62,46.62,0,0,0,2.81-11,79.15,79.15,0,0,0,.66-11.41,108.88,108.88,0,0,0-.73-11.41,89.09,89.09,0,0,1,.23,22.84,46.8,46.8,0,0,1-2.78,11.1,22.88,22.88,0,0,1-6.4,9.41l0-.05v.07l0,0a17.7,17.7,0,0,1-10.27,4.34,30.3,30.3,0,0,1-11.15-1.36A51.79,51.79,0,0,1,157,545,84,84,0,0,1,147.58,538.83Z"/><path class="cls-5" d="M65,404.58a252.65,252.65,0,0,0,9.69,29.23,299.74,299.74,0,0,0,12.8,28c4.74,9.11,9.86,18,15.46,26.63q4.22,6.46,8.77,12.67l9.47,12.16-9.57-12.08q-4.58-6.21-8.81-12.66c-5.62-8.6-10.78-17.5-15.54-26.61a298.65,298.65,0,0,1-12.73-28.07A237.82,237.82,0,0,1,65,404.58Z"/><path class="cls-5" d="M62.37,392.66l-1.07-6.61q-.57-3.3-.88-6.63A97.85,97.85,0,0,1,60,366.05a60.56,60.56,0,0,1,1.87-13.25,36.44,36.44,0,0,1,2.24-6.31,26.91,26.91,0,0,1,3.61-5.64,20,20,0,0,1,5.19-4.23,19.74,19.74,0,0,1,6.38-2,25.05,25.05,0,0,1,6.7.08c1.1.19,2.21.35,3.29.65s2.16.55,3.22.91c8.5,2.88,16,8.07,22.86,13.67l-5.32-4q-2.72-2-5.57-3.7a58.51,58.51,0,0,0-12-5.76c-1.06-.36-2.13-.64-3.22-.9s-2.17-.45-3.27-.64a24.61,24.61,0,0,0-6.64-.05,19.44,19.44,0,0,0-6.3,2A20,20,0,0,0,67.89,341a26.61,26.61,0,0,0-3.6,5.58,35.45,35.45,0,0,0-2.24,6.27,60.51,60.51,0,0,0-1.91,13.19,101,101,0,0,0,.4,13.36q.28,3.33.82,6.63Z"/><path class="cls-5" d="M136.17,377.6c3.18,4,6.42,8,9.55,12.11l4.46,6.29q2.19,3.17,4.29,6.41a295,295,0,0,1,15.36,26.74l0,0,0,.05v-.05a274.38,274.38,0,0,1,12.1,27.7c1.75,4.72,3.37,9.5,4.81,14.33.7,2.42,1.39,4.84,2,7.28s1.16,4.91,1.74,7.36c-.6-2.45-1.14-4.91-1.8-7.34s-1.34-4.85-2.07-7.27c-1.45-4.82-3.08-9.59-4.85-14.3a273,273,0,0,0-12.16-27.65l0,0v-.05l0,0v.09a293.43,293.43,0,0,0-15.27-26.76c-1.4-2.16-2.81-4.3-4.27-6.42l-4.44-6.29C142.53,385.68,139.32,381.67,136.17,377.6Z"/><path class="cls-5" d="M146.45,532.88a76.06,76.06,0,0,0,8.77,5.64,48.55,48.55,0,0,0,9.56,4.09A27.75,27.75,0,0,0,175,543.87a16.25,16.25,0,0,0,9.41-3.92l0,.06v0l0,0,0,0a21.32,21.32,0,0,0,6-8.9,42.47,42.47,0,0,0,2.56-10.55,90.2,90.2,0,0,0-.33-21.78,86,86,0,0,1,.5,21.8,42.66,42.66,0,0,1-2.54,10.61,21.34,21.34,0,0,1-6.06,9l0-.06v.08l0,0a16.49,16.49,0,0,1-9.55,4,28.29,28.29,0,0,1-10.33-1.31C158,540.74,152,537,146.45,532.88Z"/><path class="cls-5" d="M69,407a233.5,233.5,0,0,0,9.08,27.42,276.46,276.46,0,0,0,12,26.27c4.44,8.55,9.25,16.91,14.5,25q3.94,6.06,8.23,11.88l8.87,11.41-9-11.34q-4.3-5.81-8.26-11.86c-5.29-8.06-10.13-16.41-14.59-24.95A279.33,279.33,0,0,1,78,434.43,219.1,219.1,0,0,1,69,407Z"/><path class="cls-5" d="M66.57,395.79c-.64-4.09-1.43-8.17-1.78-12.3a90.51,90.51,0,0,1-.32-12.43,56.71,56.71,0,0,1,1.86-12.29c.3-1,.63-2,1-3A29,29,0,0,1,68.6,353a21.21,21.21,0,0,1,3.56-5.11,16.73,16.73,0,0,1,11.07-5.18,23.51,23.51,0,0,1,6.21.35c1,.15,2,.44,3,.69s2,.58,3,.94a57.08,57.08,0,0,1,11.08,5.61c1.74,1.13,3.46,2.29,5.09,3.57l4.88,3.85c-6.44-5.18-13.3-10-21.11-12.88-1-.35-2-.66-3-.92s-2-.53-3-.67a22.75,22.75,0,0,0-6.16-.33A16.53,16.53,0,0,0,72.34,348a21.31,21.31,0,0,0-3.54,5,29.73,29.73,0,0,0-1.28,2.82q-.54,1.46-1,2.94a56.74,56.74,0,0,0-1.9,12.24,90.24,90.24,0,0,0,.29,12.41C65.22,387.61,66,391.69,66.57,395.79Z"/><path class="cls-5" d="M135.58,383.22c2.91,3.69,5.88,7.34,8.73,11.07L148.4,400c1.33,1.93,2.64,3.89,3.92,5.86a269,269,0,0,1,14.05,24.45l0,0v.05l0,0v-.09a250.4,250.4,0,0,1,11.06,25.31q2.4,6.46,4.39,13.09c1.32,4.41,2.41,8.88,3.43,13.37-1.06-4.48-2.19-8.94-3.55-13.34s-2.82-8.76-4.43-13.07a249.68,249.68,0,0,0-11.12-25.24l0-.05v0l0,0v.09a272.33,272.33,0,0,0-14-24.47c-1.28-2-2.57-3.93-3.9-5.87l-4.07-5.76C141.39,390.61,138.45,386.94,135.58,383.22Z"/><path class="cls-5" d="M145,525.31a74.34,74.34,0,0,0,8,5.14,45.2,45.2,0,0,0,8.74,3.74,25.11,25.11,0,0,0,9.38,1.13,14.87,14.87,0,0,0,8.59-3.6l0,.06v-.07l0,0A17.52,17.52,0,0,0,183,528a18.63,18.63,0,0,0,2.2-4.45,36.56,36.56,0,0,0,2.39-9.66,83.24,83.24,0,0,0-.29-19.95h0a79,79,0,0,1,.46,20,37,37,0,0,1-2.36,9.71,19,19,0,0,1-2.2,4.51,17,17,0,0,1-3.32,3.77l0-.06v.06l0,0a15.18,15.18,0,0,1-8.73,3.63,25.56,25.56,0,0,1-9.44-1.18C155.6,532.48,150.08,529.1,145,525.31Z"/><path class="cls-5" d="M74.1,410a215.19,215.19,0,0,0,8.31,25.11,254.68,254.68,0,0,0,11,24.07c4.07,7.83,8.48,15.49,13.29,22.88q3.61,5.55,7.53,10.88l8.13,10.46L114.13,493q-3.94-5.33-7.58-10.87c-4.84-7.38-9.28-15-13.37-22.86a255.08,255.08,0,0,1-10.93-24.12A199.07,199.07,0,0,1,74.1,410Z"/><path class="cls-5" d="M71.85,399.74c-.57-3.74-1.29-7.47-1.61-11.25A83,83,0,0,1,70,377.12a51.56,51.56,0,0,1,1.73-11.24,29.79,29.79,0,0,1,2.09-5.3A19.11,19.11,0,0,1,77,355.92a15.33,15.33,0,0,1,10.14-4.71,27.33,27.33,0,0,1,11.17,1.84,52.5,52.5,0,0,1,10.13,5.16c1.59,1,3.16,2.09,4.65,3.26L117.6,365c-5.9-4.72-12.17-9.17-19.31-11.78a27,27,0,0,0-11.09-1.79,15.07,15.07,0,0,0-10,4.67,19.25,19.25,0,0,0-3.25,4.6,29.8,29.8,0,0,0-2.1,5.25,51.56,51.56,0,0,0-1.75,11.19,82.73,82.73,0,0,0,.24,11.35C70.64,392.26,71.32,396,71.85,399.74Z"/><path class="cls-5" d="M135.11,387.66c2.65,3.38,5.36,6.73,8,10.14l3.75,5.25q1.83,2.65,3.59,5.36a244.3,244.3,0,0,1,12.88,22.36l0,0,0,.05v0h0v-.09a229.2,229.2,0,0,1,10.22,23.54c1.48,4,2.84,8.07,4,12.18.61,2.05,1.17,4.12,1.69,6.19s1,4.17,1.46,6.25c-.5-2.08-1-4.17-1.49-6.24s-1.1-4.13-1.72-6.18q-1.83-6.15-4.09-12.16a233.3,233.3,0,0,0-10.33-23.47l0,0,0-.05h0v.05a243.83,243.83,0,0,0-12.76-22.4c-1.17-1.81-2.35-3.6-3.57-5.38L143,397.84C140.43,394.41,137.75,391.05,135.11,387.66Z"/><path class="cls-5" d="M143.43,517.1a67.18,67.18,0,0,0,7.39,4.8,41.13,41.13,0,0,0,8.06,3.5,23.63,23.63,0,0,0,8.66,1.13,13.52,13.52,0,0,0,7.94-3.28l0,0v0l0,0,0,0a17.83,17.83,0,0,0,5-7.22,36.3,36.3,0,0,0,2.15-8.59,73.72,73.72,0,0,0-.1-17.75,70,70,0,0,1,.27,17.77,36.37,36.37,0,0,1-2.13,8.65,17.91,17.91,0,0,1-5,7.33l0-.06v.06l0,0a13.78,13.78,0,0,1-8.09,3.31,24,24,0,0,1-8.73-1.18A50.6,50.6,0,0,1,143.43,517.1Z"/><path class="cls-5" d="M79.37,413.08A199.58,199.58,0,0,0,87,435.7a233,233,0,0,0,10,21.67c3.68,7.06,7.65,14,12,20.63q3.25,5,6.79,9.81l7.31,9.43-7.41-9.36q-3.55-4.8-6.83-9.79c-4.37-6.66-8.38-13.55-12.08-20.6a233.55,233.55,0,0,1-9.9-21.73A180.59,180.59,0,0,1,79.37,413.08Z"/><path class="cls-5" d="M77.27,403.79l-.86-5.15c-.3-1.71-.55-3.43-.72-5.17A77.27,77.27,0,0,1,75.32,383a48.13,48.13,0,0,1,1.42-10.34,22.61,22.61,0,0,1,4.6-9.32,15,15,0,0,1,4.11-3.24,14.66,14.66,0,0,1,5-1.49,24.06,24.06,0,0,1,10.29,1.43c6.6,2.34,12.41,6.4,17.75,10.83l-4.14-3.18c-1.4-1-2.85-2-4.32-2.91a47,47,0,0,0-9.34-4.58,24,24,0,0,0-10.22-1.38,14.43,14.43,0,0,0-4.93,1.48,15.22,15.22,0,0,0-4,3.2,22.49,22.49,0,0,0-4.58,9.22,48.18,48.18,0,0,0-1.46,10.29,77,77,0,0,0,.34,10.41c.14,1.73.37,3.46.65,5.17Z"/><path class="cls-5" d="M134.39,394.32c2.37,3,4.79,6,7.12,9l3.33,4.69c1.09,1.57,2.16,3.17,3.2,4.77a215,215,0,0,1,11.46,19.93l0,.05v0a205.93,205.93,0,0,1,9,20.56q2,5.25,3.58,10.63c1.07,3.58,2,7.21,2.79,10.86-.86-3.64-1.8-7.26-2.91-10.83s-2.3-7.11-3.62-10.6a202.27,202.27,0,0,0-9-20.51l0,0v0a214.78,214.78,0,0,0-11.38-20c-1-1.61-2.09-3.2-3.18-4.78l-3.31-4.7C139.12,400.35,136.73,397.36,134.39,394.32Z"/><path class="cls-5" d="M142.13,510.26a59.59,59.59,0,0,0,6.54,4.15,37.08,37.08,0,0,0,7.11,3,20.55,20.55,0,0,0,7.62.91,12.21,12.21,0,0,0,7-2.93l0,.06v-.07l0,0a15.14,15.14,0,0,0,4.46-6.65,29.57,29.57,0,0,0,1.95-7.87,69.19,69.19,0,0,0-.22-16.27h0l0-.2,0,.2h0a64.84,64.84,0,0,1,.39,16.29,30.13,30.13,0,0,1-1.92,7.93,15.2,15.2,0,0,1-4.5,6.76l0-.06v.06l0,0a12.34,12.34,0,0,1-7.11,2.95,20.66,20.66,0,0,1-7.69-.95A45.27,45.27,0,0,1,142.13,510.26Z"/><path class="cls-5" d="M84.18,415.93A176.35,176.35,0,0,0,91,436.47a206.26,206.26,0,0,0,9,19.67c3.32,6.4,6.91,12.67,10.84,18.72q3,4.53,6.15,8.9l6.65,8.54-6.75-8.47q-3.22-4.35-6.19-8.88c-4-6-7.58-12.3-10.92-18.69a204.28,204.28,0,0,1-8.92-19.73A160,160,0,0,1,84.18,415.93Z"/><path class="cls-5" d="M82.37,407.6c-.48-3.05-1.07-6.09-1.32-9.17a66.71,66.71,0,0,1-.22-9.27A43.16,43.16,0,0,1,82.27,380,23.86,23.86,0,0,1,84,375.7a15.07,15.07,0,0,1,2.7-3.78A12.51,12.51,0,0,1,95,368.16a22.88,22.88,0,0,1,9.11,1.56,43.29,43.29,0,0,1,8.23,4.24,88.82,88.82,0,0,1,7.42,5.54c-4.81-3.84-9.91-7.47-15.71-9.62a22.54,22.54,0,0,0-9-1.51,12.29,12.29,0,0,0-8.16,3.72,15.07,15.07,0,0,0-2.68,3.71,24.26,24.26,0,0,0-1.74,4.26A43.17,43.17,0,0,0,81,389.17,83.83,83.83,0,0,0,82.37,407.6Z"/><path class="cls-5" d="M133.82,399.71c2.11,2.67,4.27,5.32,6.35,8l3,4.17q1.46,2.1,2.85,4.25a195,195,0,0,1,10.2,17.75l0,0,0,.05v-.06a178,178,0,0,1,8,18.25q1.74,4.67,3.18,9.44c.95,3.18,1.75,6.41,2.47,9.65-.76-3.23-1.6-6.44-2.59-9.61s-2-6.32-3.21-9.42a182.17,182.17,0,0,0-8-18.2l0-.05v0a198.34,198.34,0,0,0-10.12-17.77c-.93-1.43-1.87-2.86-2.83-4.26l-3-4.18C138,405.08,135.9,402.41,133.82,399.71Z"/><path class="cls-5" d="M140.75,503a51.71,51.71,0,0,0,5.81,3.68,32.56,32.56,0,0,0,6.33,2.67,18.52,18.52,0,0,0,6.77.8,10.62,10.62,0,0,0,6.18-2.62l0,.06v-.06l0,0a13.42,13.42,0,0,0,4-6,27.11,27.11,0,0,0,1.73-7.1,60.79,60.79,0,0,0-.26-14.64,56.67,56.67,0,0,1,.43,14.66,27.59,27.59,0,0,1-1.7,7.16,13.31,13.31,0,0,1-1.6,3.31,12.22,12.22,0,0,1-2.44,2.78l0-.06v.06l0,0a11,11,0,0,1-6.32,2.63,18.38,18.38,0,0,1-6.83-.85A39.23,39.23,0,0,1,140.75,503Z"/><path class="cls-5" d="M89.07,418.84a156,156,0,0,0,6.05,18.33,182.56,182.56,0,0,0,8,17.55c3,5.71,6.17,11.3,9.67,16.7q2.63,4.05,5.48,7.95l5.92,7.63-6-7.56q-2.86-3.88-5.52-7.93c-3.53-5.39-6.77-11-9.76-16.68a182.87,182.87,0,0,1-8-17.6A140,140,0,0,1,89.07,418.84Z"/><path class="cls-5" d="M87.46,411.41c-.43-2.71-1-5.41-1.18-8.16A58.11,58.11,0,0,1,86.1,395a37.54,37.54,0,0,1,1.3-8.15A21.18,21.18,0,0,1,89,383,16.72,16.72,0,0,1,90,381.26a12.75,12.75,0,0,1,1.35-1.59,11.19,11.19,0,0,1,7.43-3.29,20.57,20.57,0,0,1,8.1,1.41,37.9,37.9,0,0,1,7.33,3.77,81.62,81.62,0,0,1,6.59,5c-4.28-3.42-8.81-6.67-14-8.57a20.29,20.29,0,0,0-8-1.37,11,11,0,0,0-7.27,3.27,14.11,14.11,0,0,0-1.33,1.55,18,18,0,0,0-1.07,1.74,21.45,21.45,0,0,0-1.55,3.78,37,37,0,0,0-1.34,8.1A73.91,73.91,0,0,0,87.46,411.41Z"/><line class="cls-6" x1="114.29" y1="342.83" x2="114.29" y2="342.84"/><path class="cls-7" d="M276.4,540.36Q256,522.21,234.19,504.82c-10.21-8.31-20.79-16.38-31.63-24.57-7.81-5.8-15.5-11.47-23.31-16.89-18.28-13-36.55-25.2-54.57-36.42V578.79c0,46.76,50.66,75.87,91.11,52.55l8.44-4.91,14.37-8.32,17.77-10.2,11.84-6.81,14.87-8.7,16.26-9.32,14.49-8.44C301.86,563,289.38,551.57,276.4,540.36Z"/><path class="cls-8" d="M499.45,467.52,313.83,574.64c-12-11.6-24.45-23.07-37.43-34.28L493.66,415,179.25,233.51V463.36c-18.28-13-36.55-25.2-54.57-36.42V251.28c0-46.76,50.66-76,91.11-52.68L499.45,362.42C539.91,385.74,539.91,444.21,499.45,467.52Z"/><path class="cls-9" d="M493.66,415,276.4,540.36Q256,522.21,234.19,504.82c-10.21-8.31-20.79-16.38-31.63-24.57-7.81-5.8-15.5-11.47-23.31-16.89V233.51Z"/><path class="cls-10" d="M276.4,540.36l-14.61,8.44-16.26,9.33-15,8.69-11.84,6.93L200.79,584l-14.36,8.32-7.18,4.16V463.36c7.81,5.42,15.5,11.09,23.31,16.89,10.84,8.19,21.42,16.26,31.63,24.57Q255.93,522.22,276.4,540.36Z"/><path d="M488.28,270.4c-3.53,7-13.89,8.85-20.95,3.86-6.14-4.35-7.94-11.35-4.3-16.83,3-4.47,9.74-6.51,15.65-4.79a16.14,16.14,0,0,1,9.49,7.37l15.52-30.88c-3.12-.72-6.05-1.42-9-2.07-8.47-1.84-16.94-3.63-25.4-5.51a1.7,1.7,0,0,0-2.32,1.07c-6.66,13.36-13.64,26.57-20,40.08-3.58,7.6-13.57,9.81-20.8,5.38-4.56-2.82-7.24-6.7-6.9-12,.43-6.36,6.58-11.12,13.67-10.65a15.72,15.72,0,0,1,12.63,7c.15.2.3.38.46.56a3.14,3.14,0,0,0,.42.21l8.78-17.46c3-5.85,5.93-11.69,8.83-17.57.76-1.54,1.83-1.92,3.51-1.56,13.05,2.89,26.1,5.71,39.15,8.58,2.66.58,3.26,1.76,2.09,4.1Q498.6,249.83,488.28,270.4Z"/><path d="M279.09,188.67c-1.52.17-2.54-.81-2.81-2.81-1.08-7.82-4.84-14.8-8.06-22.63l-1.05,2.1c-5.59,11.15-11.22,22.26-16.77,33.41-2,4-5.32,6-9.83,6a12.22,12.22,0,0,1-11.11-5.8c-4.27-6.6.27-14.46,8.44-14.73a13.25,13.25,0,0,1,10.67,4.47c.24.27.47.51,1,1l16.36-32.56c.54-1.08,1.12-2.23,2.71-2s2,1.29,2.51,2.51c2.4,5.93,5,11.82,7.28,17.82a68.78,68.78,0,0,1,2.61,10C281.4,187.35,280.52,188.51,279.09,188.67Z"/><path d="M324.16,662.43c-2.36.26-3.93-1.23-4.34-4.26-1.68-11.85-7.48-22.43-12.45-34.28l-1.62,3.18c-8.63,16.88-17.31,33.72-25.88,50.6-3.09,6.11-8.21,9-15.17,9.14-7.26.15-13.23-2.77-17.15-8.78-6.59-10,.42-21.91,13-22.32A20.64,20.64,0,0,1,277,662.48c.37.41.74.77,1.47,1.49l25.25-49.32c.84-1.64,1.73-3.39,4.19-3.08,2.3.26,3.08,1.95,3.87,3.8,3.71,9,7.79,17.91,11.24,27a102.76,102.76,0,0,1,4,15.19C327.71,660.43,326.35,662.17,324.16,662.43Z"/><path d="M523.13,554.12c14.62-2.1,22.23-19.2,13.79-31.31-2.25-3.24-6-5.4-9.65-8.53a82.81,82.81,0,0,0,1.51-8.69,5.83,5.83,0,0,1,4.14-5.52,32.22,32.22,0,0,0,15.81-13.73c5.31-8.9,9.13-18.28,7.31-29-.78-4.63-1.87-5.71-6.13-3.88a26.41,26.41,0,0,0-9.17,6.6,44.2,44.2,0,0,0-10.45,24.09c-.51,4.3-2.14,6.31-6.17,8.26a122.69,122.69,0,0,0-21,13c-6.38,4.89-9.33,12.16-9.38,20.26-.1,16.87,9.75,26.8,22.36,29.35.4,7.47-2,17.36-5.07,21.59-2.71,3.74-6.64,4.34-10.7,3.91-3.32-.35-6.65-1.34-7.87-5.75,1.16.11,2,.17,2.86.26,3.49.39,5.71-1.47,6.92-4.41,1.34-3.31,1.53-6.82-1.29-9.51-2.56-2.42-5.66-2.28-8.69-.73a10.14,10.14,0,0,0-4.15,14.43c3.22,5.46,8,8.89,14.57,8.34s11.1-4.12,13-10.43a99.55,99.55,0,0,0,3.23-14.25C519.34,555.58,520.15,554.54,523.13,554.12Zm21.6-88c1.71-1.22,4.88-.42,7.37-.54,0,2.36.93,5.17-.05,7-4.21,8-10.88,13.24-20.17,16.86C532.92,479,537.19,471.51,544.73,466.15Zm-46.57,71.71c-3.09-8.42-.48-15.79,5.49-22s13.87-9.73,22.72-12.76c-.61,3.48-1.31,6.17-1.5,8.9s-1.42,3.49-3.8,4c-7.37,1.43-12.13,5.85-14.14,13.1a12.24,12.24,0,0,0,6.28,14.32c-6.05-9.6-1.8-18,9.46-18.79l-5.43,27.68C507.35,551.36,501.27,546.34,498.16,537.86Zm21.92,14.22c1.63-9,3.21-17.59,4.79-26.28,5.75,1.91,8.55,7.31,7.66,14.29S527.28,551.59,520.08,552.08Z"/></svg>